<mxfile host="app.diagrams.net" modified="2023-08-04T21:06:29.695Z" agent="Mozilla/5.0 (Windows NT 10.0; Win64; x64) AppleWebKit/537.36 (KHTML, like Gecko) Chrome/115.0.0.0 Safari/537.36 Edg/115.0.1901.188" version="21.6.6" etag="6_76uL0bj93uxqlwTYlV" type="github">
  <diagram name="Page-1" id="UyD9-uJ9Hyirf3Iz01NY">
    <mxGraphModel>
      <root>
        <mxCell id="0" />
        <mxCell id="1" parent="0" />
      </root>
    </mxGraphModel>
  </diagram>
</mxfile>
